<mxfile host="app.diagrams.net" modified="2024-02-05T22:01:22.204Z" agent="Mozilla/5.0 (Windows NT 10.0; Win64; x64) AppleWebKit/537.36 (KHTML, like Gecko) Chrome/121.0.0.0 Safari/537.36" etag="hL6ls6hyS9q9H78HhT__" version="23.1.1" type="github">
  <diagram name="Stránka-1" id="x-Fcm3KbszNm8x_ngYv4">
    <mxGraphModel dx="1372" dy="836" grid="1" gridSize="10" guides="1" tooltips="1" connect="1" arrows="1" fold="1" page="1" pageScale="1" pageWidth="827" pageHeight="1169" math="0" shadow="0">
      <root>
        <mxCell id="0" />
        <mxCell id="1" parent="0" />
        <mxCell id="IggBUtw6OXyn9Edd8lxv-1" value="Nepřihlášený&lt;br&gt;Uživatel" style="shape=umlActor;verticalLabelPosition=bottom;verticalAlign=top;html=1;" vertex="1" parent="1">
          <mxGeometry x="110" y="140" width="30" height="60" as="geometry" />
        </mxCell>
        <mxCell id="IggBUtw6OXyn9Edd8lxv-2" value="Registrovaný&lt;br&gt;Uživatel&lt;br&gt;" style="shape=umlActor;verticalLabelPosition=bottom;verticalAlign=top;html=1;" vertex="1" parent="1">
          <mxGeometry x="110" y="610" width="30" height="60" as="geometry" />
        </mxCell>
        <mxCell id="IggBUtw6OXyn9Edd8lxv-4" value="" style="endArrow=none;html=1;rounded=0;" edge="1" parent="1" source="IggBUtw6OXyn9Edd8lxv-5">
          <mxGeometry width="50" height="50" relative="1" as="geometry">
            <mxPoint x="160" y="640" as="sourcePoint" />
            <mxPoint x="480" y="640" as="targetPoint" />
          </mxGeometry>
        </mxCell>
        <mxCell id="IggBUtw6OXyn9Edd8lxv-6" value="Vytvořit Rezervaci" style="ellipse;whiteSpace=wrap;html=1;" vertex="1" parent="1">
          <mxGeometry x="350" y="670" width="140" height="40" as="geometry" />
        </mxCell>
        <mxCell id="IggBUtw6OXyn9Edd8lxv-7" value="Vyplnit údaje na letenky" style="ellipse;whiteSpace=wrap;html=1;" vertex="1" parent="1">
          <mxGeometry x="650" y="670" width="140" height="40" as="geometry" />
        </mxCell>
        <mxCell id="IggBUtw6OXyn9Edd8lxv-10" value="Přihlásit se" style="ellipse;whiteSpace=wrap;html=1;" vertex="1" parent="1">
          <mxGeometry x="350" y="190" width="140" height="40" as="geometry" />
        </mxCell>
        <mxCell id="IggBUtw6OXyn9Edd8lxv-12" value="Vytvořit účet" style="ellipse;whiteSpace=wrap;html=1;" vertex="1" parent="1">
          <mxGeometry x="350" y="130" width="140" height="40" as="geometry" />
        </mxCell>
        <mxCell id="IggBUtw6OXyn9Edd8lxv-13" value="Vyhledat Spoje" style="ellipse;whiteSpace=wrap;html=1;" vertex="1" parent="1">
          <mxGeometry x="350" y="410" width="140" height="40" as="geometry" />
        </mxCell>
        <mxCell id="IggBUtw6OXyn9Edd8lxv-14" value="" style="endArrow=none;html=1;rounded=0;entryX=0;entryY=0.5;entryDx=0;entryDy=0;" edge="1" parent="1" target="IggBUtw6OXyn9Edd8lxv-13">
          <mxGeometry width="50" height="50" relative="1" as="geometry">
            <mxPoint x="160" y="640" as="sourcePoint" />
            <mxPoint x="210" y="590" as="targetPoint" />
          </mxGeometry>
        </mxCell>
        <mxCell id="IggBUtw6OXyn9Edd8lxv-15" value="" style="endArrow=none;html=1;rounded=0;exitX=1;exitY=0.5;exitDx=0;exitDy=0;" edge="1" parent="1" source="IggBUtw6OXyn9Edd8lxv-16">
          <mxGeometry width="50" height="50" relative="1" as="geometry">
            <mxPoint x="620" y="430" as="sourcePoint" />
            <mxPoint x="750" y="430" as="targetPoint" />
          </mxGeometry>
        </mxCell>
        <mxCell id="IggBUtw6OXyn9Edd8lxv-17" value="" style="endArrow=none;html=1;rounded=0;exitX=1;exitY=0.5;exitDx=0;exitDy=0;" edge="1" parent="1" source="IggBUtw6OXyn9Edd8lxv-18">
          <mxGeometry width="50" height="50" relative="1" as="geometry">
            <mxPoint x="620" y="430" as="sourcePoint" />
            <mxPoint x="760" y="360" as="targetPoint" />
          </mxGeometry>
        </mxCell>
        <mxCell id="IggBUtw6OXyn9Edd8lxv-19" value="" style="endArrow=none;html=1;rounded=0;entryX=0;entryY=0.5;entryDx=0;entryDy=0;" edge="1" parent="1" target="IggBUtw6OXyn9Edd8lxv-12">
          <mxGeometry width="50" height="50" relative="1" as="geometry">
            <mxPoint x="160" y="160" as="sourcePoint" />
            <mxPoint x="210" y="110" as="targetPoint" />
          </mxGeometry>
        </mxCell>
        <mxCell id="IggBUtw6OXyn9Edd8lxv-20" value="" style="endArrow=none;html=1;rounded=0;entryX=0;entryY=0.5;entryDx=0;entryDy=0;" edge="1" parent="1" target="IggBUtw6OXyn9Edd8lxv-10">
          <mxGeometry width="50" height="50" relative="1" as="geometry">
            <mxPoint x="160" y="160" as="sourcePoint" />
            <mxPoint x="210" y="110" as="targetPoint" />
          </mxGeometry>
        </mxCell>
        <mxCell id="IggBUtw6OXyn9Edd8lxv-21" value="" style="endArrow=none;html=1;rounded=0;entryX=0;entryY=0.5;entryDx=0;entryDy=0;" edge="1" parent="1" target="IggBUtw6OXyn9Edd8lxv-13">
          <mxGeometry width="50" height="50" relative="1" as="geometry">
            <mxPoint x="160" y="160" as="sourcePoint" />
            <mxPoint x="210" y="110" as="targetPoint" />
          </mxGeometry>
        </mxCell>
        <mxCell id="IggBUtw6OXyn9Edd8lxv-22" value="" style="endArrow=none;html=1;rounded=0;" edge="1" parent="1" target="IggBUtw6OXyn9Edd8lxv-5">
          <mxGeometry width="50" height="50" relative="1" as="geometry">
            <mxPoint x="160" y="640" as="sourcePoint" />
            <mxPoint x="480" y="640" as="targetPoint" />
          </mxGeometry>
        </mxCell>
        <mxCell id="IggBUtw6OXyn9Edd8lxv-5" value="Odhlásit Se" style="ellipse;whiteSpace=wrap;html=1;" vertex="1" parent="1">
          <mxGeometry x="350" y="620" width="140" height="40" as="geometry" />
        </mxCell>
        <mxCell id="IggBUtw6OXyn9Edd8lxv-23" value="" style="endArrow=none;html=1;rounded=0;exitX=1;exitY=0.5;exitDx=0;exitDy=0;" edge="1" parent="1" source="IggBUtw6OXyn9Edd8lxv-13" target="IggBUtw6OXyn9Edd8lxv-16">
          <mxGeometry width="50" height="50" relative="1" as="geometry">
            <mxPoint x="490" y="430" as="sourcePoint" />
            <mxPoint x="750" y="430" as="targetPoint" />
          </mxGeometry>
        </mxCell>
        <mxCell id="IggBUtw6OXyn9Edd8lxv-16" value="Zobrazit místa letu" style="ellipse;whiteSpace=wrap;html=1;" vertex="1" parent="1">
          <mxGeometry x="650" y="410" width="140" height="40" as="geometry" />
        </mxCell>
        <mxCell id="IggBUtw6OXyn9Edd8lxv-24" value="" style="endArrow=none;html=1;rounded=0;exitX=1;exitY=0.5;exitDx=0;exitDy=0;entryX=0;entryY=0.5;entryDx=0;entryDy=0;" edge="1" parent="1" source="IggBUtw6OXyn9Edd8lxv-13" target="IggBUtw6OXyn9Edd8lxv-18">
          <mxGeometry width="50" height="50" relative="1" as="geometry">
            <mxPoint x="490" y="430" as="sourcePoint" />
            <mxPoint x="760" y="360" as="targetPoint" />
          </mxGeometry>
        </mxCell>
        <mxCell id="IggBUtw6OXyn9Edd8lxv-18" value="Zobrazit detaily&lt;br&gt;o letu" style="ellipse;whiteSpace=wrap;html=1;" vertex="1" parent="1">
          <mxGeometry x="650" y="350" width="140" height="40" as="geometry" />
        </mxCell>
        <mxCell id="IggBUtw6OXyn9Edd8lxv-25" value="" style="endArrow=none;html=1;rounded=0;entryX=0;entryY=0.5;entryDx=0;entryDy=0;" edge="1" parent="1" target="IggBUtw6OXyn9Edd8lxv-6">
          <mxGeometry width="50" height="50" relative="1" as="geometry">
            <mxPoint x="160" y="640" as="sourcePoint" />
            <mxPoint x="210" y="590" as="targetPoint" />
          </mxGeometry>
        </mxCell>
        <mxCell id="IggBUtw6OXyn9Edd8lxv-27" value="Zaplatit za rezervaci" style="ellipse;whiteSpace=wrap;html=1;" vertex="1" parent="1">
          <mxGeometry x="650" y="730" width="140" height="40" as="geometry" />
        </mxCell>
        <mxCell id="IggBUtw6OXyn9Edd8lxv-28" value="Stornovat rezervaci" style="ellipse;whiteSpace=wrap;html=1;" vertex="1" parent="1">
          <mxGeometry x="650" y="790" width="140" height="40" as="geometry" />
        </mxCell>
        <mxCell id="IggBUtw6OXyn9Edd8lxv-29" value="" style="endArrow=none;html=1;rounded=0;entryX=0;entryY=0.5;entryDx=0;entryDy=0;" edge="1" parent="1" target="IggBUtw6OXyn9Edd8lxv-7">
          <mxGeometry width="50" height="50" relative="1" as="geometry">
            <mxPoint x="490" y="690" as="sourcePoint" />
            <mxPoint x="540" y="640" as="targetPoint" />
          </mxGeometry>
        </mxCell>
        <mxCell id="IggBUtw6OXyn9Edd8lxv-31" value="" style="endArrow=none;html=1;rounded=0;entryX=0;entryY=0.5;entryDx=0;entryDy=0;" edge="1" parent="1" target="IggBUtw6OXyn9Edd8lxv-27">
          <mxGeometry width="50" height="50" relative="1" as="geometry">
            <mxPoint x="490" y="690" as="sourcePoint" />
            <mxPoint x="540" y="640" as="targetPoint" />
          </mxGeometry>
        </mxCell>
        <mxCell id="IggBUtw6OXyn9Edd8lxv-32" value="" style="endArrow=none;html=1;rounded=0;exitX=1;exitY=0.5;exitDx=0;exitDy=0;entryX=0;entryY=0.5;entryDx=0;entryDy=0;" edge="1" parent="1" source="IggBUtw6OXyn9Edd8lxv-6" target="IggBUtw6OXyn9Edd8lxv-28">
          <mxGeometry width="50" height="50" relative="1" as="geometry">
            <mxPoint x="480" y="690" as="sourcePoint" />
            <mxPoint x="530" y="640" as="targetPoint" />
          </mxGeometry>
        </mxCell>
        <mxCell id="IggBUtw6OXyn9Edd8lxv-33" value="Letecká Společnost" style="shape=umlActor;verticalLabelPosition=bottom;verticalAlign=top;html=1;outlineConnect=0;" vertex="1" parent="1">
          <mxGeometry x="110" y="860" width="30" height="60" as="geometry" />
        </mxCell>
        <mxCell id="IggBUtw6OXyn9Edd8lxv-35" value="Vytvořit Let" style="ellipse;whiteSpace=wrap;html=1;" vertex="1" parent="1">
          <mxGeometry x="360" y="880" width="140" height="40" as="geometry" />
        </mxCell>
        <mxCell id="IggBUtw6OXyn9Edd8lxv-36" value="Zrušit Let" style="ellipse;whiteSpace=wrap;html=1;" vertex="1" parent="1">
          <mxGeometry x="360" y="940" width="140" height="40" as="geometry" />
        </mxCell>
        <mxCell id="IggBUtw6OXyn9Edd8lxv-38" value="" style="endArrow=none;html=1;rounded=0;entryX=0;entryY=0.5;entryDx=0;entryDy=0;" edge="1" parent="1" target="IggBUtw6OXyn9Edd8lxv-35">
          <mxGeometry width="50" height="50" relative="1" as="geometry">
            <mxPoint x="160" y="900" as="sourcePoint" />
            <mxPoint x="210" y="850" as="targetPoint" />
          </mxGeometry>
        </mxCell>
        <mxCell id="IggBUtw6OXyn9Edd8lxv-39" value="" style="endArrow=none;html=1;rounded=0;entryX=0;entryY=0.5;entryDx=0;entryDy=0;" edge="1" parent="1" target="IggBUtw6OXyn9Edd8lxv-36">
          <mxGeometry width="50" height="50" relative="1" as="geometry">
            <mxPoint x="160" y="900" as="sourcePoint" />
            <mxPoint x="210" y="850" as="targetPoint" />
          </mxGeometry>
        </mxCell>
        <mxCell id="IggBUtw6OXyn9Edd8lxv-41" value="Vytvořit lístky" style="ellipse;whiteSpace=wrap;html=1;" vertex="1" parent="1">
          <mxGeometry x="660" y="880" width="140" height="40" as="geometry" />
        </mxCell>
        <mxCell id="IggBUtw6OXyn9Edd8lxv-42" value="" style="endArrow=none;html=1;rounded=0;entryX=0;entryY=0.5;entryDx=0;entryDy=0;" edge="1" parent="1" target="IggBUtw6OXyn9Edd8lxv-41">
          <mxGeometry width="50" height="50" relative="1" as="geometry">
            <mxPoint x="500" y="900" as="sourcePoint" />
            <mxPoint x="550" y="850" as="targetPoint" />
          </mxGeometry>
        </mxCell>
        <mxCell id="IggBUtw6OXyn9Edd8lxv-43" value="" style="endArrow=none;html=1;rounded=0;" edge="1" parent="1">
          <mxGeometry width="50" height="50" relative="1" as="geometry">
            <mxPoint x="800" y="900" as="sourcePoint" />
            <mxPoint x="940" y="900" as="targetPoint" />
          </mxGeometry>
        </mxCell>
        <mxCell id="IggBUtw6OXyn9Edd8lxv-44" value="Upravit cenu" style="ellipse;whiteSpace=wrap;html=1;" vertex="1" parent="1">
          <mxGeometry x="940" y="880" width="140" height="40" as="geometry" />
        </mxCell>
        <mxCell id="IggBUtw6OXyn9Edd8lxv-45" value="" style="endArrow=none;html=1;rounded=0;entryX=0;entryY=0.5;entryDx=0;entryDy=0;" edge="1" parent="1" target="IggBUtw6OXyn9Edd8lxv-46">
          <mxGeometry width="50" height="50" relative="1" as="geometry">
            <mxPoint x="500" y="900" as="sourcePoint" />
            <mxPoint x="650" y="960" as="targetPoint" />
          </mxGeometry>
        </mxCell>
        <mxCell id="IggBUtw6OXyn9Edd8lxv-46" value="Upravit údaje" style="ellipse;whiteSpace=wrap;html=1;" vertex="1" parent="1">
          <mxGeometry x="660" y="940" width="140" height="40" as="geometry" />
        </mxCell>
        <mxCell id="IggBUtw6OXyn9Edd8lxv-47" value="" style="endArrow=none;html=1;rounded=0;entryX=0;entryY=0.5;entryDx=0;entryDy=0;" edge="1" parent="1" target="IggBUtw6OXyn9Edd8lxv-48">
          <mxGeometry width="50" height="50" relative="1" as="geometry">
            <mxPoint x="160" y="640" as="sourcePoint" />
            <mxPoint x="350" y="760" as="targetPoint" />
          </mxGeometry>
        </mxCell>
        <mxCell id="IggBUtw6OXyn9Edd8lxv-48" value="Zobrazit Rezervace" style="ellipse;whiteSpace=wrap;html=1;" vertex="1" parent="1">
          <mxGeometry x="350" y="730" width="140" height="40" as="geometry" />
        </mxCell>
        <mxCell id="IggBUtw6OXyn9Edd8lxv-49" value="Správa potrvrzení objednávky&lt;br&gt;BOT" style="shape=umlActor;verticalLabelPosition=bottom;verticalAlign=top;html=1;outlineConnect=0;" vertex="1" parent="1">
          <mxGeometry x="995" y="660" width="30" height="60" as="geometry" />
        </mxCell>
        <mxCell id="IggBUtw6OXyn9Edd8lxv-50" value="Odeslat Upozornění" style="ellipse;whiteSpace=wrap;html=1;" vertex="1" parent="1">
          <mxGeometry x="1110" y="680" width="140" height="40" as="geometry" />
        </mxCell>
        <mxCell id="IggBUtw6OXyn9Edd8lxv-54" value="" style="endArrow=none;html=1;rounded=0;entryX=0;entryY=0.5;entryDx=0;entryDy=0;" edge="1" parent="1" target="IggBUtw6OXyn9Edd8lxv-50">
          <mxGeometry width="50" height="50" relative="1" as="geometry">
            <mxPoint x="1010" y="700" as="sourcePoint" />
            <mxPoint x="1060" y="650" as="targetPoint" />
          </mxGeometry>
        </mxCell>
        <mxCell id="IggBUtw6OXyn9Edd8lxv-56" value="&lt;font style=&quot;font-size: 21px;&quot;&gt;Pozn, Nevim jak vyresit odesilani&amp;nbsp;&lt;br&gt;listku v use case diagramu&lt;br&gt;aka kdo bude akter?&amp;nbsp;&lt;/font&gt;" style="text;html=1;align=center;verticalAlign=middle;resizable=0;points=[];autosize=1;strokeColor=none;fillColor=none;strokeWidth=3;" vertex="1" parent="1">
          <mxGeometry x="880" y="425" width="340" height="90" as="geometry" />
        </mxCell>
      </root>
    </mxGraphModel>
  </diagram>
</mxfile>
